<?xml version="1.0" encoding="UTF-8"?>
<!--
Font Awesome Free 5.13.1 by @fontawesome - https://fontawesome.com
License - https://fontawesome.com/license/free (Icons: CC BY 4.0, Fonts: SIL OFL 1.1, Code: MIT License)
-->
<svg xmlns="http://www.w3.org/2000/svg" style="display: none;">
  <symbol id="bold" viewBox="0 0 384 512">
    <path d="M333.49 238a122 122 0 0 0 27-65.21C367.87 96.49 308 32 233.42 32H34a16 16 0 0 0-16 16v48a16 16 0 0 0 16 16h31.87v288H34a16 16 0 0 0-16 16v48a16 16 0 0 0 16 16h209.32c70.8 0 134.14-51.75 141-122.4 4.74-48.45-16.39-92.06-50.83-119.6zM145.66 112h87.76a48 48 0 0 1 0 96h-87.76zm87.76 288h-87.76V288h87.76a56 56 0 0 1 0 112z"></path>
  </symbol>
  <symbol id="code" viewBox="0 0 640 512">
    <path d="M278.9 511.5l-61-17.7c-6.4-1.8-10-8.5-8.2-14.9L346.2 8.7c1.8-6.4 8.5-10 14.9-8.2l61 17.7c6.4 1.8 10 8.5 8.2 14.9L293.8 503.3c-1.9 6.4-8.5 10.1-14.9 8.2zm-114-112.2l43.5-46.4c4.6-4.9 4.3-12.7-.8-17.2L117 256l90.6-79.7c5.1-4.5 5.5-12.3.8-17.2l-43.5-46.4c-4.5-4.8-12.1-5.1-17-.5L3.8 247.2c-5.1 4.7-5.1 12.8 0 17.5l144.1 135.1c4.9 4.6 12.5 4.4 17-.5zm327.2.6l144.1-135.1c5.1-4.7 5.1-12.8 0-17.5L492.1 112.1c-4.8-4.5-12.4-4.3-17 .5L431.6 159c-4.6 4.9-4.3 12.7.8 17.2L523 256l-90.6 79.7c-5.1 4.5-5.5 12.3-.8 17.2l43.5 46.4c4.5 4.9 12.1 5.1 17 .6z"></path>
  </symbol>
  <symbol id="heading" viewBox="0 0 512 512">
    <path d="M448 96v320h32a16 16 0 0 1 16 16v32a16 16 0 0 1-16 16H320a16 16 0 0 1-16-16v-32a16 16 0 0 1 16-16h32V288H160v128h32a16 16 0 0 1 16 16v32a16 16 0 0 1-16 16H32a16 16 0 0 1-16-16v-32a16 16 0 0 1 16-16h32V96H32a16 16 0 0 1-16-16V48a16 16 0 0 1 16-16h160a16 16 0 0 1 16 16v32a16 16 0 0 1-16 16h-32v128h192V96h-32a16 16 0 0 1-16-16V48a16 16 0 0 1 16-16h160a16 16 0 0 1 16 16v32a16 16 0 0 1-16 16z"></path>
  </symbol>
  <symbol id="italic" viewBox="0 0 320 512">
    <path d="M320 48v32a16 16 0 0 1-16 16h-62.76l-80 320H208a16 16 0 0 1 16 16v32a16 16 0 0 1-16 16H16a16 16 0 0 1-16-16v-32a16 16 0 0 1 16-16h62.76l80-320H112a16 16 0 0 1-16-16V48a16 16 0 0 1 16-16h192a16 16 0 0 1 16 16z"></path>
  </symbol>
  <symbol id="link" viewBox="0 0 512 512">
    <path d="M326.612 185.391c59.747 59.809 58.927 155.698.36 214.59-.11.12-.24.25-.36.37l-67.2 67.2c-59.27 59.27-155.699 59.262-214.96 0-59.27-59.26-59.27-155.7 0-214.96l37.106-37.106c9.84-9.84 26.786-3.3 27.294 10.606.648 17.722 3.826 35.527 9.69 52.721 1.986 5.822.567 12.262-3.783 16.612l-13.087 13.087c-28.026 28.026-28.905 73.66-1.155 101.96 28.024 28.579 74.086 28.749 102.325.51l67.2-67.19c28.191-28.191 28.073-73.757 0-101.83-3.701-3.694-7.429-6.564-10.341-8.569a16.037 16.037 0 0 1-6.947-12.606c-.396-10.567 3.348-21.456 11.698-29.806l21.054-21.055c5.521-5.521 14.182-6.199 20.584-1.731a152.482 152.482 0 0 1 20.522 17.197zM467.547 44.449c-59.261-59.262-155.69-59.27-214.96 0l-67.2 67.2c-.12.12-.25.25-.36.37-58.566 58.892-59.387 154.781.36 214.59a152.454 152.454 0 0 0 20.521 17.196c6.402 4.468 15.064 3.789 20.584-1.731l21.054-21.055c8.35-8.35 12.094-19.239 11.698-29.806a16.037 16.037 0 0 0-6.947-12.606c-2.912-2.005-6.64-4.875-10.341-8.569-28.073-28.073-28.191-73.639 0-101.83l67.2-67.19c28.239-28.239 74.3-28.069 102.325.51 27.75 28.3 26.872 73.934-1.155 101.96l-13.087 13.087c-4.35 4.35-5.769 10.79-3.783 16.612 5.864 17.194 9.042 34.999 9.69 52.721.509 13.906 17.454 20.446 27.294 10.606l37.106-37.106c59.271-59.259 59.271-155.699.001-214.959z"></path>
  </symbol>
  <symbol id="list-ul" viewBox="0 0 512 512">
    <path d="M48 48a48 48 0 1 0 48 48 48 48 0 0 0-48-48zm0 160a48 48 0 1 0 48 48 48 48 0 0 0-48-48zm0 160a48 48 0 1 0 48 48 48 48 0 0 0-48-48zm448 16H176a16 16 0 0 0-16 16v32a16 16 0 0 0 16 16h320a16 16 0 0 0 16-16v-32a16 16 0 0 0-16-16zm0-320H176a16 16 0 0 0-16 16v32a16 16 0 0 0 16 16h320a16 16 0 0 0 16-16V80a16 16 0 0 0-16-16zm0 160H176a16 16 0 0 0-16 16v32a16 16 0 0 0 16 16h320a16 16 0 0 0 16-16v-32a16 16 0 0 0-16-16z"></path>
  </symbol>
  <symbol id="mask" viewBox="0 0 640 512">
    <path d="M320.67 64c-442.6 0-357.57 384-158.46 384 39.9 0 77.47-20.69 101.42-55.86l25.73-37.79c15.66-22.99 46.97-22.99 62.63 0l25.73 37.79C401.66 427.31 439.23 448 479.13 448c189.86 0 290.63-384-158.46-384zM184 308.36c-41.06 0-67.76-25.66-80.08-41.05-5.23-6.53-5.23-16.09 0-22.63 12.32-15.4 39.01-41.05 80.08-41.05s67.76 25.66 80.08 41.05c5.23 6.53 5.23 16.09 0 22.63-12.32 15.4-39.02 41.05-80.08 41.05zm272 0c-41.06 0-67.76-25.66-80.08-41.05-5.23-6.53-5.23-16.09 0-22.63 12.32-15.4 39.01-41.05 80.08-41.05s67.76 25.66 80.08 41.05c5.23 6.53 5.23 16.09 0 22.63-12.32 15.4-39.02 41.05-80.08 41.05z"></path>
  </symbol>
  <symbol id="palette" viewBox="0 0 512 512">
    <path d="M204.3 5C104.9 24.4 24.8 104.3 5.2 203.4c-37 187 131.7 326.4 258.8 306.7 41.2-6.4 61.4-54.6 42.5-91.7-23.1-45.4 9.9-98.4 60.9-98.4h79.7c35.8 0 64.8-29.6 64.9-65.3C511.5 97.1 368.1-26.9 204.3 5zM96 320c-17.7 0-32-14.3-32-32s14.3-32 32-32 32 14.3 32 32-14.3 32-32 32zm32-128c-17.7 0-32-14.3-32-32s14.3-32 32-32 32 14.3 32 32-14.3 32-32 32zm128-64c-17.7 0-32-14.3-32-32s14.3-32 32-32 32 14.3 32 32-14.3 32-32 32zm128 64c-17.7 0-32-14.3-32-32s14.3-32 32-32 32 14.3 32 32-14.3 32-32 32z"></path>
  </symbol>
  <symbol id="quote-right" viewBox="0 0 512 512">
    <path d="M464 32H336c-26.5 0-48 21.5-48 48v128c0 26.5 21.5 48 48 48h80v64c0 35.3-28.7 64-64 64h-8c-13.3 0-24 10.7-24 24v48c0 13.3 10.7 24 24 24h8c88.4 0 160-71.6 160-160V80c0-26.5-21.5-48-48-48zm-288 0H48C21.5 32 0 53.5 0 80v128c0 26.5 21.5 48 48 48h80v64c0 35.3-28.7 64-64 64h-8c-13.3 0-24 10.7-24 24v48c0 13.3 10.7 24 24 24h8c88.4 0 160-71.6 160-160V80c0-26.5-21.5-48-48-48z"></path>
  </symbol>
  <symbol id="strikethrough" viewBox="0 0 512 512">
    <path d="M496 224H293.9l-87.17-26.83A43.55 43.55 0 0 1 219.55 112h66.79A49.89 49.89 0 0 1 331 139.58a16 16 0 0 0 21.46 7.15l42.94-21.47a16 16 0 0 0 7.16-21.46l-.53-1A128 128 0 0 0 287.51 32h-68a123.68 123.68 0 0 0-123 135.64c2 20.89 10.1 39.83 21.78 56.36H16a16 16 0 0 0-16 16v32a16 16 0 0 0 16 16h480a16 16 0 0 0 16-16v-32a16 16 0 0 0-16-16zm-180.24 96A43 43 0 0 1 336 356.45 43.59 43.59 0 0 1 292.45 400h-66.79A49.89 49.89 0 0 1 181 372.42a16 16 0 0 0-21.46-7.15l-42.94 21.47a16 16 0 0 0-7.16 21.46l.53 1A128 128 0 0 0 224.49 480h68a123.68 123.68 0 0 0 123-135.64 114.25 114.25 0 0 0-5.34-24.36z"></path>
  </symbol>
  <symbol id="underline" viewBox="0 0 448 512">
    <path d="M32 64h32v160c0 88.22 71.78 160 160 160s160-71.78 160-160V64h32a16 16 0 0 0 16-16V16a16 16 0 0 0-16-16H272a16 16 0 0 0-16 16v32a16 16 0 0 0 16 16h32v160a80 80 0 0 1-160 0V64h32a16 16 0 0 0 16-16V16a16 16 0 0 0-16-16H32a16 16 0 0 0-16 16v32a16 16 0 0 0 16 16zm400 384H16a16 16 0 0 0-16 16v32a16 16 0 0 0 16 16h416a16 16 0 0 0 16-16v-32a16 16 0 0 0-16-16z"></path>
  </symbol>
  <symbol id="table" viewBox="0 0 512 512">
	<path d="M448 32C483.3 32 512 60.65 512 96V416C512 451.3 483.3 480 448 480H64C28.65 480 0 451.3 0 416V96C0 60.65 28.65 32 64 32H448zM224 256V160H64V256H224zM64 320V416H224V320H64zM288 416H448V320H288V416zM448 256V160H288V256H448z"></path>
  </symbol>
  <symbol id="image" viewBox="0 0 512 512">
	<path d="M447.1 32h-384C28.64 32-.0091 60.65-.0091 96v320c0 35.35 28.65 64 63.1 64h384c35.35 0 64-28.65 64-64V96C511.1 60.65 483.3 32 447.1 32zM111.1 96c26.51 0 48 21.49 48 48S138.5 192 111.1 192s-48-21.49-48-48S85.48 96 111.1 96zM446.1 407.6C443.3 412.8 437.9 416 432 416H82.01c-6.021 0-11.53-3.379-14.26-8.75c-2.73-5.367-2.215-11.81 1.334-16.68l70-96C142.1 290.4 146.9 288 152 288s9.916 2.441 12.93 6.574l32.46 44.51l93.3-139.1C293.7 194.7 298.7 192 304 192s10.35 2.672 13.31 7.125l128 192C448.6 396 448.9 402.3 446.1 407.6z"></path>
  </symbol>
  <symbol id="anchor" viewBox="0 0 576 512">
	<path d="M352 176C369.7 176 384 190.3 384 208C384 225.7 369.7 240 352 240H320V448H368C421 448 464 405 464 352V345.9L456.1 352.1C447.6 362.3 432.4 362.3 423 352.1C413.7 343.6 413.7 328.4 423 319L479 263C488.4 253.7 503.6 253.7 512.1 263L568.1 319C578.3 328.4 578.3 343.6 568.1 352.1C559.6 362.3 544.4 362.3 535 352.1L528 345.9V352C528 440.4 456.4 512 368 512H208C119.6 512 48 440.4 48 352V345.9L40.97 352.1C31.6 362.3 16.4 362.3 7.029 352.1C-2.343 343.6-2.343 328.4 7.029 319L63.03 263C72.4 253.7 87.6 253.7 96.97 263L152.1 319C162.3 328.4 162.3 343.6 152.1 352.1C143.6 362.3 128.4 362.3 119 352.1L112 345.9V352C112 405 154.1 448 208 448H256V240H224C206.3 240 192 225.7 192 208C192 190.3 206.3 176 224 176H234.9C209 158.8 192 129.4 192 96C192 42.98 234.1 0 288 0C341 0 384 42.98 384 96C384 129.4 366.1 158.8 341.1 176H352zM288 128C305.7 128 320 113.7 320 96C320 78.33 305.7 64 288 64C270.3 64 256 78.33 256 96C256 113.7 270.3 128 288 128z"></path>
  </symbol>
  <symbol id="center" viewBox="0 0 448 512">
	<path d="M352 64c0-17.7-14.3-32-32-32H128c-17.7 0-32 14.3-32 32s14.3 32 32 32H320c17.7 0 32-14.3 32-32zm96 128c0-17.7-14.3-32-32-32H32c-17.7 0-32 14.3-32 32s14.3 32 32 32H416c17.7 0 32-14.3 32-32zM0 448c0 17.7 14.3 32 32 32H416c17.7 0 32-14.3 32-32s-14.3-32-32-32H32c-17.7 0-32 14.3-32 32zM352 320c0-17.7-14.3-32-32-32H128c-17.7 0-32 14.3-32 32s14.3 32 32 32H320c17.7 0 32-14.3 32-32z"></path>
  </symbol>
  <symbol id="information" viewBox="0 0 512 512">
	<path d="M256 512A256 256 0 1 0 256 0a256 256 0 1 0 0 512zM216 336h24V272H216c-13.3 0-24-10.7-24-24s10.7-24 24-24h48c13.3 0 24 10.7 24 24v88h8c13.3 0 24 10.7 24 24s-10.7 24-24 24H216c-13.3 0-24-10.7-24-24s10.7-24 24-24zm40-208a32 32 0 1 1 0 64 32 32 0 1 1 0-64z"></path>
  </symbol>
  <symbol id="lines" viewBox="0 0 448 512">
	<path d="M32 288c-17.7 0-32 14.3-32 32s14.3 32 32 32l384 0c17.7 0 32-14.3 32-32s-14.3-32-32-32L32 288zm0-128c-17.7 0-32 14.3-32 32s14.3 32 32 32l384 0c17.7 0 32-14.3 32-32s-14.3-32-32-32L32 160z"></path>
  </symbol>
  <symbol id="usertag" viewBox="0 0 640 512">
	<path d="M224 256A128 128 0 1 0 224 0a128 128 0 1 0 0 256zm-45.7 48C79.8 304 0 383.8 0 482.3C0 498.7 13.3 512 29.7 512H418.3c10 0 18.8-4.9 24.2-12.5l-99.2-99.2c-14.9-14.9-23.3-35.1-23.3-56.1v-33c-15.9-4.7-32.8-7.2-50.3-7.2H178.3zM384 224c-17.7 0-32 14.3-32 32v82.7c0 17 6.7 33.3 18.7 45.3L478.1 491.3c18.7 18.7 49.1 18.7 67.9 0l73.4-73.4c18.7-18.7 18.7-49.1 0-67.9L512 242.7c-12-12-28.3-18.7-45.3-18.7H384zm24 80a24 24 0 1 1 48 0 24 24 0 1 1 -48 0z"></path>
  </symbol>
  <symbol id="chevron-up" viewBox="0 0 512 512">
	<path d="M233.4 105.4c12.5-12.5 32.8-12.5 45.3 0l192 192c12.5 12.5 12.5 32.8 0 45.3s-32.8 12.5-45.3 0L256 173.3 86.6 342.6c-12.5 12.5-32.8 12.5-45.3 0s-12.5-32.8 0-45.3l192-192z"></path>
  </symbol>
  <symbol id="chevron-down" viewBox="0 0 512 512">
	<path d="M233.4 406.6c12.5 12.5 32.8 12.5 45.3 0l192-192c12.5-12.5 12.5-32.8 0-45.3s-32.8-12.5-45.3 0L256 338.7 86.6 169.4c-12.5-12.5-32.8-12.5-45.3 0s-12.5 32.8 0 45.3l192 192z"></path>
  </symbol>
  <symbol id="checkmark" viewBox="0 0 640 640">
	<path d="M530.8 134.1C545.1 144.5 548.3 164.5 537.9 178.8L281.9 530.8C276.4 538.4 267.9 543.1 258.5 543.9C249.1 544.7 240 541.2 233.4 534.6L105.4 406.6C92.9 394.1 92.9 373.8 105.4 361.3C117.9 348.8 138.2 348.8 150.7 361.3L252.2 462.8L486.2 141.1C496.6 126.8 516.6 123.6 530.9 134z"/>
  </symbol>
  <symbol id="xmark" viewBox="0 0 640 640">
	<path d="M183.1 137.4C170.6 124.9 150.3 124.9 137.8 137.4C125.3 149.9 125.3 170.2 137.8 182.7L275.2 320L137.9 457.4C125.4 469.9 125.4 490.2 137.9 502.7C150.4 515.2 170.7 515.2 183.2 502.7L320.5 365.3L457.9 502.6C470.4 515.1 490.7 515.1 503.2 502.6C515.7 490.1 515.7 469.8 503.2 457.3L365.8 320L503.1 182.6C515.6 170.1 515.6 149.8 503.1 137.3C490.6 124.8 470.3 124.8 457.8 137.3L320.5 274.7L183.1 137.4z"/>
  </symbol>
  <symbol id="star" viewBox="0 0 640 640">
	<path d="M341.5 45.1C337.4 37.1 329.1 32 320.1 32C311.1 32 302.8 37.1 298.7 45.1L225.1 189.3L65.2 214.7C56.3 216.1 48.9 222.4 46.1 231C43.3 239.6 45.6 249 51.9 255.4L166.3 369.9L141.1 529.8C139.7 538.7 143.4 547.7 150.7 553C158 558.3 167.6 559.1 175.7 555L320.1 481.6L464.4 555C472.4 559.1 482.1 558.3 489.4 553C496.7 547.7 500.4 538.8 499 529.8L473.7 369.9L588.1 255.4C594.5 249 596.7 239.6 593.9 231C591.1 222.4 583.8 216.1 574.8 214.7L415 189.3L341.5 45.1z"/>
  </symbol>
  <symbol id="circle-up" viewBox="0 0 640 640">
	<path d="M320 112C434.9 112 528 205.1 528 320C528 434.9 434.9 528 320 528C205.1 528 112 434.9 112 320C112 205.1 205.1 112 320 112zM320 576C461.4 576 576 461.4 576 320C576 178.6 461.4 64 320 64C178.6 64 64 178.6 64 320C64 461.4 178.6 576 320 576zM331.3 188.7C325.1 182.5 314.9 182.5 308.7 188.7L204.7 292.7C200.1 297.3 198.8 304.2 201.2 310.1C203.6 316 209.5 320 216 320L288 320L288 424C288 437.3 298.7 448 312 448L328 448C341.3 448 352 437.3 352 424L352 320L424 320C430.5 320 436.3 316.1 438.8 310.1C441.3 304.1 439.9 297.2 435.3 292.7L331.3 188.7z"/>
  </symbol>
  <symbol id="plus" viewBox="0 0 640 640">
	<path d="M352 128C352 110.3 337.7 96 320 96C302.3 96 288 110.3 288 128L288 288L128 288C110.3 288 96 302.3 96 320C96 337.7 110.3 352 128 352L288 352L288 512C288 529.7 302.3 544 320 544C337.7 544 352 529.7 352 512L352 352L512 352C529.7 352 544 337.7 544 320C544 302.3 529.7 288 512 288L352 288L352 128z"/>
  </symbol>
  <symbol id="poll" viewBox="0 0 640 640">
	<path d="M544 160C544 124.7 515.3 96 480 96L160 96C124.7 96 96 124.7 96 160L96 480C96 515.3 124.7 544 160 544L480 544C515.3 544 544 515.3 544 480L544 160zM352 216C352 229.3 341.3 240 328 240L216 240C202.7 240 192 229.3 192 216C192 202.7 202.7 192 216 192L328 192C341.3 192 352 202.7 352 216zM424 296C437.3 296 448 306.7 448 320C448 333.3 437.3 344 424 344L216 344C202.7 344 192 333.3 192 320C192 306.7 202.7 296 216 296L424 296zM288 424C288 437.3 277.3 448 264 448L216 448C202.7 448 192 437.3 192 424C192 410.7 202.7 400 216 400L264 400C277.3 400 288 410.7 288 424z"/>
  </symbol>
  <symbol id="pencil" viewBox="0 0 512 512">
    <path d="M410.3 231l11.3-11.3-33.9-33.9-62.1-62.1L291.7 89.8l-11.3 11.3-22.6 22.6L58.6 322.9c-10.4 10.4-18 23.3-22.2 37.4L1 480.7c-2.5 8.4-.2 17.5 6.1 23.7s15.3 8.5 23.7 6.1l120.3-35.4c14.1-4.2 27-11.8 37.4-22.2L387.7 253.7 410.3 231zM160 399.4l-9.1 22.7c-4 3.1-8.5 5.4-13.3 6.9L59.4 452l23-78.1c1.4-4.9 3.8-9.4 6.9-13.3l22.7-9.1v32c0 8.8 7.2 16 16 16h32zM362.7 18.7L348.3 33.2 325.7 55.8 314.3 67.1l33.9 33.9 62.1 62.1 33.9 33.9 11.3-11.3 22.6-22.6 14.5-14.5c25-25 25-65.5 0-90.5L453.3 18.7c-25-25-65.5-25-90.5 0zm-47.4 168l-144 144c-6.2 6.2-16.4 6.2-22.6 0s-6.2-16.4 0-22.6l144-144c6.2-6.2 16.4-6.2 22.6 0s6.2 16.4 0 22.6z"></path>
  </symbol>
  <symbol id="fill-drip" viewBox="0 0 576 512">
    <path d="M41.4 9.4C53.9-3.1 74.1-3.1 86.6 9.4L168 90.7l53.1-53.1c28.1-28.1 73.7-28.1 101.8 0L474.3 189.1c28.1 28.1 28.1 73.7 0 101.8L283.9 481.4c-28.1 28.1-73.7 28.1-101.8 0L9.4 308.7c-28.1-28.1-28.1-73.7 0-101.8l53.1-53.1L9.4 100.7c-12.5-12.5-12.5-32.8 0-45.3l32-45.9zM192 289.9c0 35.3 28.6 64.1 64 64.1s64-28.7 64-64.1c0-15.6-5.6-37.4-23.1-67.7C283.9 200.6 268.3 175 256 155.8c-12.3 19.2-27.9 44.8-40.9 66.4C197.6 252.5 192 274.3 192 289.9z"></path>
  </symbol>
  <symbol id="eye-dropper" viewBox="0 0 512 512">
    <path d="M341.6 29.2L240.1 130.8l-9.4-9.4c-12.5-12.5-32.8-12.5-45.3 0s-12.5 32.8 0 45.3l160 160c12.5 12.5 32.8 12.5 45.3 0s12.5-32.8 0-45.3l-9.4-9.4L482.8 170.4c39-39 39-102.2 0-141.1s-102.2-39-141.1 0zM55.4 323.3c-15 15-23.4 35.4-23.4 56.6v42.4L5.4 462.2c-7.5 7.5-7.5 19.8 0 27.3l17.1 17.1c7.5 7.5 19.8 7.5 27.3 0L89.7 466.7h42.4c21.2 0 41.6-8.4 56.6-23.4L309.4 322.6 189.4 202.6 55.4 323.3z"></path>
  </symbol>
  <symbol id="eraser" viewBox="0 0 576 512">
    <path d="M290.7 57.4L57.4 290.7c-25 25-25 65.5 0 90.5l80 80c12 12 28.3 18.7 45.3 18.7H288h9.4H512c17.7 0 32-14.3 32-32s-14.3-32-32-32H387.9L518.6 284.7c25-25 25-65.5 0-90.5L381.3 56.4c-25-25-65.5-25-90.5 0zM297.4 416H288l-105.4 0-80-80L227.3 211.3 364.7 348.7 297.4 416z"></path>
  </symbol>
  <symbol id="rotate-left" viewBox="0 0 512 512">
    <path d="M48.5 224H40c-13.3 0-24-10.7-24-24V72c0-9.7 5.8-18.5 14.8-22.2s19.3-1.7 26.2 5.2L98.6 96.6c87.6-86.5 228.7-86.2 315.8 1c87.5 87.5 87.5 229.3 0 316.8s-229.3 87.5-316.8 0c-12.5-12.5-12.5-32.8 0-45.3s32.8-12.5 45.3 0c62.5 62.5 163.8 62.5 226.3 0s62.5-163.8 0-226.3c-62.2-62.2-162.7-62.5-225.3-1L185 183c6.9 6.9 8.9 17.2 5.2 26.2s-12.5 14.8-22.2 14.8H48.5z"></path>
  </symbol>
  <symbol id="rotate-right" viewBox="0 0 512 512">
    <path d="M463.5 224H472c13.3 0 24-10.7 24-24V72c0-9.7-5.8-18.5-14.8-22.2s-19.3-1.7-26.2 5.2L413.4 96.6c-87.6-86.5-228.7-86.2-315.8 1c-87.5 87.5-87.5 229.3 0 316.8s229.3 87.5 316.8 0c12.5-12.5 12.5-32.8 0-45.3s-32.8-12.5-45.3 0c-62.5 62.5-163.8 62.5-226.3 0s-62.5-163.8 0-226.3c62.2-62.2 162.7-62.5 225.3-1L327 183c-6.9 6.9-8.9 17.2-5.2 26.2s12.5 14.8 22.2 14.8H463.5z"></path>
  </symbol>
  <symbol id="border-all" viewBox="0 0 448 512">
    <path d="M384 96V224H256V96H384zm0 192V416H256V288H384zM192 224V96H64V224H192zM64 288H192V416H64V288zM64 32C28.7 32 0 60.7 0 96V416c0 35.3 28.7 64 64 64H384c35.3 0 64-28.7 64-64V96c0-35.3-28.7-64-64-64H64z"></path>
  </symbol>
  <symbol id="crosshairs" viewBox="0 0 512 512">
    <path d="M256 0c17.7 0 32 14.3 32 32V66.7C368.4 80.1 431.9 143.6 445.3 224H480c17.7 0 32 14.3 32 32s-14.3 32-32 32H445.3C431.9 368.4 368.4 431.9 288 445.3V480c0 17.7-14.3 32-32 32s-32-14.3-32-32V445.3C143.6 431.9 80.1 368.4 66.7 288H32c-17.7 0-32-14.3-32-32s14.3-32 32-32H66.7C80.1 143.6 143.6 80.1 224 66.7V32c0-17.7 14.3-32 32-32zM128 256a128 128 0 1 0 256 0 128 128 0 1 0-256 0zm128-80a80 80 0 1 1 0 160 80 80 0 1 1 0-160z"></path>
  </symbol>
  <symbol id="arrows-left-right" viewBox="0 0 512 512">
    <path d="M406.6 374.6l96-96c12.5-12.5 12.5-32.8 0-45.3l-96-96c-12.5-12.5-32.8-12.5-45.3 0s-12.5 32.8 0 45.3L402.7 224H109.3l41.4-41.4c12.5-12.5 12.5-32.8 0-45.3s-32.8-12.5-45.3 0l-96 96c-12.5 12.5-12.5 32.8 0 45.3l96 96c12.5 12.5 32.8 12.5 45.3 0s12.5-32.8 0-45.3L109.3 288H402.7l-41.4 41.4c-12.5 12.5-12.5 32.8 0 45.3s32.8 12.5 45.3 0z"></path>
  </symbol>
  <symbol id="arrows-up-down" viewBox="0 0 320 512">
    <path d="M182.6 9.4c-12.5-12.5-32.8-12.5-45.3 0l-96 96c-12.5 12.5-12.5 32.8 0 45.3s32.8 12.5 45.3 0L128 109.3V402.7L86.6 361.4c-12.5-12.5-32.8-12.5-45.3 0s-12.5 32.8 0 45.3l96 96c12.5 12.5 32.8 12.5 45.3 0l96-96c12.5-12.5 12.5-32.8 0-45.3s-32.8-12.5-45.3 0L192 402.7V109.3l41.4 41.4c12.5 12.5 32.8 12.5 45.3 0s12.5-32.8 0-45.3l-96-96z"></path>
  </symbol>
  <symbol id="play" viewBox="0 0 384 512">
    <path d="M73 39c-14.8-9.1-33.4-9.4-48.5-.9S0 62.6 0 80V432c0 17.4 9.4 33.4 24.5 41.9s33.7 8.1 48.5-.9L361 297c14.3-8.7 23-24.2 23-41s-8.7-32.2-23-41L73 39z"></path>
  </symbol>
  <symbol id="stop" viewBox="0 0 384 512">
    <path d="M0 128C0 92.7 28.7 64 64 64H320c35.3 0 64 28.7 64 64V384c0 35.3-28.7 64-64 64H64c-35.3 0-64-28.7-64-64V128z"></path>
  </symbol>
</svg>