<svg version="1.1" id="Layer_1" xmlns="http://www.w3.org/2000/svg" xmlns:xlink="http://www.w3.org/1999/xlink" x="0px" y="0px"
	 width="100%" viewBox="0 0 256 256" enable-background="new 0 0 256 256" xml:space="preserve">
<path fill="#000000" opacity="1.000000" stroke="none" 
	d="
M159.281693,236.583038 
	C137.770844,240.396652 117.243851,239.149918 97.587959,229.817261 
	C94.887772,228.535202 93.182281,227.018921 93.627876,223.804703 
	C93.879341,221.990845 93.058228,220.782257 91.497635,219.683914 
	C85.019485,215.124603 84.475426,207.397934 90.525940,202.536728 
	C92.921463,200.612091 93.725250,198.658157 93.688530,195.781250 
	C93.576408,186.995667 93.647827,178.207748 93.647827,169.311127 
	C89.009773,168.370850 85.103210,170.154907 80.932770,169.581451 
	C69.353676,167.989243 62.039936,161.228912 55.809452,152.006439 
	C48.282169,140.864456 48.006641,128.828934 49.696671,116.281601 
	C50.830444,107.864029 56.800537,100.864769 64.213730,99.354218 
	C70.208107,98.132767 75.974648,102.334381 76.236656,108.589638 
	C76.425949,113.108971 76.723465,117.532814 75.874550,122.253479 
	C74.643089,129.101440 77.476418,135.670898 83.489830,140.074768 
	C86.988586,142.637070 93.478073,139.538742 93.546463,135.083115 
	C93.748428,121.924667 94.055580,108.737282 93.354210,95.612907 
	C93.123642,91.298439 89.794907,87.284515 85.352707,85.062752 
	C82.079147,83.425484 78.819557,81.865059 78.624374,77.313881 
	C78.422539,72.607727 81.240898,70.387848 84.898865,68.755844 
	C86.499916,68.041534 87.730347,67.098366 88.638145,65.625641 
	C96.004105,53.675861 107.671005,48.554504 120.667679,45.727287 
	C123.981667,45.006378 126.403389,44.469780 126.909515,40.188766 
	C127.453178,35.590294 132.679153,33.342831 139.875183,33.656048 
	C145.121368,33.884399 148.759521,36.658428 149.272400,41.370846 
	C149.581436,44.210384 150.721909,45.177586 153.504929,45.787155 
	C166.307434,48.591331 177.830933,53.711506 185.300049,65.275185 
	C186.750305,67.520485 189.186447,67.718269 191.306610,68.471588 
	C195.394577,69.924095 198.307343,72.051567 198.368164,76.915634 
	C198.431244,81.957657 195.055634,83.829918 191.151550,85.230095 
	C183.375214,88.019035 183.353790,87.974251 183.351166,96.172005 
	C183.347198,108.500923 183.392380,120.830055 183.325256,133.158600 
	C183.307327,136.452988 183.927094,137.319473 187.888779,137.246750 
	C200.494736,137.015350 209.417068,143.549133 216.579483,153.816544 
	C224.650391,165.386276 225.042496,177.865204 223.252121,190.909592 
	C222.100006,199.303696 216.141510,206.075943 209.036865,207.587250 
	C203.420853,208.781860 199.376450,207.014862 197.503891,201.056366 
	C196.169250,196.809525 195.202164,192.120071 196.526260,187.461746 
	C198.820374,179.390839 196.106247,172.868546 190.123154,167.449402 
	C188.913223,166.353516 187.514053,165.038818 185.718842,165.789276 
	C183.817825,166.584015 183.335693,168.372299 183.342377,170.355103 
	C183.372681,179.351746 183.403244,188.348938 183.326843,197.345032 
	C183.307526,199.620392 184.341248,200.830490 186.114883,202.164078 
	C192.422180,206.906509 192.148529,215.043854 185.671921,219.731171 
	C184.382782,220.664154 183.152725,221.603485 183.416901,223.295792 
	C184.033218,227.243790 181.684677,228.841522 178.588348,230.316040 
	C172.540253,233.196228 166.170486,234.974594 159.281693,236.583038 
M157.503387,143.964249 
	C159.850937,145.275452 161.627914,144.266479 163.238800,142.559875 
	C169.252914,136.188339 169.416550,117.124603 163.511017,110.634552 
	C160.747772,107.597809 158.238297,107.677902 155.529266,110.658569 
	C149.452957,117.344124 149.464523,138.031204 157.503387,143.964249 
M110.355614,131.107056 
	C110.356552,134.347229 111.430679,137.285126 113.061325,140.007217 
	C114.338707,142.139603 115.759224,144.557907 118.581604,144.421844 
	C121.277557,144.291870 122.926857,142.182510 123.979897,139.824966 
	C128.048843,130.715332 128.036469,121.608368 123.755760,112.562309 
	C122.714760,110.362473 121.143463,108.642250 118.562309,108.482933 
	C115.822121,108.313797 114.545692,110.361778 113.292969,112.367867 
	C109.833023,117.908569 110.206726,124.071388 110.355614,131.107056 
M144.639725,166.040543 
	C144.548965,161.771683 145.258728,157.435928 142.629227,153.500381 
	C139.898163,149.412827 136.833466,149.400070 134.248367,153.475723 
	C131.523163,157.772247 132.193268,162.484451 132.497513,167.032974 
	C132.739182,170.646225 133.790817,174.756302 138.120819,175.412430 
	C142.589661,176.089584 142.872726,171.655365 144.289963,168.841522 
	C144.572800,168.279984 144.518250,167.548523 144.639725,166.040543 
z"/>
</svg>